name rise44.8762peak52.3436fall86.788.mot
datacolumns 19
datarows 15
range 2.51166000000000 2.53498500000000
endheader
time	ground_force1_vx	ground_force1_vy	ground_force1_vz	ground_force1_px	ground_force1_py	ground_force1_pz	ground_force2_vx	ground_force2_vy	ground_force2_vz	ground_force2_px	ground_force2_py	ground_force2_pz	ground_torque1_x	ground_torque1_y	ground_torque1_z	ground_torque2_x	ground_torque2_y	ground_torque2_z	
2.51166000000000	62.48793100000000	767.61886800000002	55.50145600000000	0.30987400000000	0.00000000000000	0.10112700000000	0.00000000000000	0.00000000000000	0.00000000000000	0.00000000000000	0.00000000000000	0.00000000000000	0.00000000000000	21.26589600000000	0.00000000000000	0.00000000000000	0.00000000000000	0.00000000000000	
2.51332200000000	61.42915000000000	767.66373299999998	55.43164500000000	0.30818500000000	0.00000000000000	0.10123700000000	0.00000000000000	0.00000000000000	0.00000000000000	0.00000000000000	0.00000000000000	0.00000000000000	0.00000000000000	21.22782800000000	0.00000000000000	0.00000000000000	0.00000000000000	0.00000000000000	
2.51498800000000	60.38104700000000	767.62593900000002	55.36299700000000	0.30652500000000	0.00000000000000	0.10134800000000	0.00000000000000	0.00000000000000	0.00000000000000	0.00000000000000	0.00000000000000	0.00000000000000	0.00000000000000	21.19176100000000	0.00000000000000	0.00000000000000	0.00000000000000	0.00000000000000	
2.51665400000000	59.34489600000000	767.50852199999997	55.29587400000000	0.30489400000000	0.00000000000000	0.10145900000000	0.00000000000000	0.00000000000000	0.00000000000000	0.00000000000000	0.00000000000000	0.00000000000000	0.00000000000000	21.15783000000000	0.00000000000000	0.00000000000000	0.00000000000000	0.00000000000000	
2.51832300000000	58.32185900000000	767.31446100000005	55.23056500000000	0.30329500000000	0.00000000000000	0.10157000000000	0.00000000000000	0.00000000000000	0.00000000000000	0.00000000000000	0.00000000000000	0.00000000000000	0.00000000000000	21.12612800000000	0.00000000000000	0.00000000000000	0.00000000000000	0.00000000000000	
2.51998700000000	57.31299500000000	767.04668000000004	55.16728400000000	0.30172800000000	0.00000000000000	0.10168200000000	0.00000000000000	0.00000000000000	0.00000000000000	0.00000000000000	0.00000000000000	0.00000000000000	0.00000000000000	21.09670500000000	0.00000000000000	0.00000000000000	0.00000000000000	0.00000000000000	
2.52165800000000	56.31925300000000	766.70805900000005	55.10617900000000	0.30019500000000	0.00000000000000	0.10179300000000	0.00000000000000	0.00000000000000	0.00000000000000	0.00000000000000	0.00000000000000	0.00000000000000	0.00000000000000	21.06957400000000	0.00000000000000	0.00000000000000	0.00000000000000	0.00000000000000	
2.52332400000000	55.34147600000000	766.30143199999998	55.04733000000000	0.29869500000000	0.00000000000000	0.10190400000000	0.00000000000000	0.00000000000000	0.00000000000000	0.00000000000000	0.00000000000000	0.00000000000000	0.00000000000000	21.04470700000000	0.00000000000000	0.00000000000000	0.00000000000000	0.00000000000000	
2.52499000000000	54.38040200000000	765.82959100000005	54.99075500000000	0.29723000000000	0.00000000000000	0.10201500000000	0.00000000000000	0.00000000000000	0.00000000000000	0.00000000000000	0.00000000000000	0.00000000000000	0.00000000000000	21.02204500000000	0.00000000000000	0.00000000000000	0.00000000000000	0.00000000000000	
2.52666100000000	53.43666900000000	765.29529700000001	54.93641300000000	0.29580000000000	0.00000000000000	0.10212500000000	0.00000000000000	0.00000000000000	0.00000000000000	0.00000000000000	0.00000000000000	0.00000000000000	0.00000000000000	21.00149500000000	0.00000000000000	0.00000000000000	0.00000000000000	0.00000000000000	
2.52832300000000	52.51081200000000	764.70127700000000	54.88421000000000	0.29440500000000	0.00000000000000	0.10223500000000	0.00000000000000	0.00000000000000	0.00000000000000	0.00000000000000	0.00000000000000	0.00000000000000	0.00000000000000	20.98293600000000	0.00000000000000	0.00000000000000	0.00000000000000	0.00000000000000	
2.52998600000000	51.60326900000000	764.05023200000005	54.83400000000000	0.29304600000000	0.00000000000000	0.10234300000000	0.00000000000000	0.00000000000000	0.00000000000000	0.00000000000000	0.00000000000000	0.00000000000000	0.00000000000000	20.96621700000000	0.00000000000000	0.00000000000000	0.00000000000000	0.00000000000000	
2.53165200000000	50.71438200000000	763.34483999999998	54.78559200000000	0.29172300000000	0.00000000000000	0.10245100000000	0.00000000000000	0.00000000000000	0.00000000000000	0.00000000000000	0.00000000000000	0.00000000000000	0.00000000000000	20.95116700000000	0.00000000000000	0.00000000000000	0.00000000000000	0.00000000000000	
2.53332200000000	49.84440300000000	762.58775700000001	54.73875400000000	0.29043500000000	0.00000000000000	0.10255800000000	0.00000000000000	0.00000000000000	0.00000000000000	0.00000000000000	0.00000000000000	0.00000000000000	0.00000000000000	20.93759200000000	0.00000000000000	0.00000000000000	0.00000000000000	0.00000000000000	
2.53498500000000	48.99349500000000	761.78162399999997	54.69321700000000	0.28918200000000	0.00000000000000	0.10266400000000	0.00000000000000	0.00000000000000	0.00000000000000	0.00000000000000	0.00000000000000	0.00000000000000	0.00000000000000	20.92527900000000	0.00000000000000	0.00000000000000	0.00000000000000	0.00000000000000	
